<svg height="512" viewBox="0 0 512 512" width="512" xmlns="http://www.w3.org/2000/svg" xmlns:xlink="http://www.w3.org/1999/xlink"><linearGradient id="linear-gradient" gradientUnits="userSpaceOnUse" x1="17.116" x2="537.023" y1="503.578" y2="-16.329"><stop offset="0" stop-color="#003f8a"/><stop offset=".518" stop-color="#00d7df"/><stop offset="1" stop-color="#006df0"/></linearGradient><linearGradient id="linear-gradient-2" x1="60.769" x2="580.676" xlink:href="#linear-gradient" y1="547.231" y2="27.324"/><linearGradient id="linear-gradient-3" x1="10.769" x2="530.676" xlink:href="#linear-gradient" y1="497.231" y2="-22.676"/><linearGradient id="linear-gradient-4" x1="214.769" x2="734.676" xlink:href="#linear-gradient" y1="701.231" y2="181.324"/><path d="m501.566 153.254-32-31a8 8 0 0 0 -5.566-2.254h-432a24.027 24.027 0 0 0 -24 24v224a24.027 24.027 0 0 0 24 24h16.679a47.866 47.866 0 0 0 11.582 24h-45.261a8 8 0 0 0 0 16h449a8 8 0 0 0 0-16h-12.261a47.866 47.866 0 0 0 11.582-24h16.679a24.027 24.027 0 0 0 24-24v-209a8 8 0 0 0 -2.434-5.746zm-477.566 30.746h96v56h-96zm112 0h112v56h-112zm128 0h112v56h-112zm128 56v-56h96v88h-61.194l-35.622-28.5a7.942 7.942 0 0 0 .816-3.5zm-360-104h428.76l27.24 26.388v5.612h-464v-24a8.009 8.009 0 0 1 8-8zm32 248a32 32 0 1 1 32 32 32.036 32.036 0 0 1 -32-32zm304.679 8a47.866 47.866 0 0 0 11.582 24h-248.522a47.866 47.866 0 0 0 11.582-24zm15.321-8a32 32 0 1 1 32 32 32.036 32.036 0 0 1 -32-32zm104-16a8.009 8.009 0 0 1 -8 8h-16.679a47.991 47.991 0 0 0 -94.642 0h-225.358a47.991 47.991 0 0 0 -94.642 0h-16.679a8.009 8.009 0 0 1 -8-8v-8h8a8 8 0 0 0 0-16h-8v-88h357.194l37.806 30.247a8 8 0 0 0 5 1.753h64v56h-8a8 8 0 0 0 0 16h8z" fill="url(#linear-gradient)"/><path d="m352 344h-192a8 8 0 0 0 0 16h192a8 8 0 0 0 0-16z" fill="url(#linear-gradient-2)"/><path d="m160 336h80a8 8 0 0 0 8-8v-40a8 8 0 0 0 -8-8h-80a8 8 0 0 0 -8 8v40a8 8 0 0 0 8 8zm8-40h64v24h-64z" fill="url(#linear-gradient-3)"/><path d="m496 416h-8a8 8 0 0 0 0 16h8a8 8 0 0 0 0-16z" fill="url(#linear-gradient-4)"/></svg>